<svg width="250" height="191" viewBox="0 0 250 191" fill="none" xmlns="http://www.w3.org/2000/svg">
<g opacity="0.4">
<path d="M-18.6496 126.285C-19.0672 126.703 -19.3051 127.27 -19.3051 127.858V139.731C-19.3051 140.958 -18.3139 141.948 -17.0865 141.948H-5.24229C-4.65377 141.948 -4.08793 141.714 -3.67245 141.298L78.9288 58.5322C79.3463 58.1141 79.5842 57.5458 79.5842 56.9592V45.0845C79.5842 43.8578 78.5929 42.8687 77.3656 42.8687H65.5147C64.9262 42.8687 64.3604 43.1017 63.9449 43.5179L-18.6496 126.285ZM-18.6496 126.285L-18.9739 125.959" stroke="#D2EBD5"/>
<path d="M-20.9916 187.232H-32.8425C-34.0699 187.232 -35.0611 186.242 -35.0611 185.015V173.141C-35.0611 172.554 -34.8233 171.987 -34.4056 171.568L-4.96595 142.07C-4.55048 141.653 -3.98464 141.419 -3.39611 141.419H8.45475C9.68217 141.419 10.6734 142.409 10.6734 143.636V155.51C10.6734 156.098 10.4355 156.665 10.0179 157.083L-19.4218 186.582C-19.8373 186.998 -20.4031 187.232 -20.9916 187.232Z" stroke="#D2EBD5"/>
<path d="M16.4767 58.5109H4.6259C3.39852 58.5109 2.4073 57.5218 2.4073 56.2942V44.4204C2.4073 43.8338 2.64519 43.2656 3.06276 42.8475L21.4618 24.4119C21.8772 23.9956 22.443 23.7617 23.0315 23.7617H34.8824C36.1098 23.7617 37.101 24.7508 37.101 25.9775V37.8522C37.101 38.4389 36.8631 39.0071 36.4456 39.4252L18.0466 57.8608C17.6312 58.277 17.0653 58.5109 16.4767 58.5109Z" stroke="#D2EBD5"/>
<path d="M154.978 128.905H143.127C141.9 128.905 140.909 127.916 140.909 126.69V114.815C140.909 114.228 141.146 113.66 141.564 113.242L180.203 74.5262C180.619 74.1099 181.185 73.876 181.773 73.876H193.624C194.851 73.876 195.843 74.8651 195.843 76.0918V87.9665C195.843 88.5532 195.605 89.1214 195.188 89.5395L156.548 128.256C156.132 128.672 155.567 128.905 154.978 128.905Z" stroke="#D2EBD5"/>
<path d="M93.7564 72.2569H81.9054C80.678 72.2569 79.6868 71.2669 79.6868 70.0402V58.1655C79.6868 57.5788 79.9246 57.0115 80.3423 56.5925L109.782 27.0945C110.198 26.6783 110.763 26.4443 111.352 26.4443H123.202C124.43 26.4443 125.421 27.4344 125.421 28.6611V40.5348C125.421 41.1224 125.183 41.6897 124.766 42.1078L95.3263 71.6067C94.9108 72.023 94.3447 72.2569 93.7564 72.2569Z" stroke="#D2EBD5"/>
<path d="M217.875 67.2259H206.024C204.797 67.2259 203.805 66.2359 203.805 65.0092V53.1345C203.805 52.5478 204.043 51.9806 204.46 51.5615L233.901 22.0635C234.316 21.6473 234.881 21.4133 235.471 21.4133H247.321C248.549 21.4133 249.54 22.4034 249.54 23.6301V35.5048C249.54 36.0914 249.301 36.6587 248.884 37.0777L219.445 66.5757C219.029 66.992 218.463 67.2259 217.875 67.2259Z" stroke="#D2EBD5"/>
<path d="M180.735 73.5989H168.884C167.656 73.5989 166.665 72.6089 166.665 71.3822V59.5074C166.665 58.9208 166.903 58.3535 167.321 57.9344L187.059 38.1571C187.474 37.7408 188.04 37.5078 188.629 37.5078H200.48C201.707 37.5078 202.699 38.4969 202.699 39.7236V51.5983C202.699 52.185 202.46 52.7532 202.043 53.1713L182.305 72.9487C181.89 73.3649 181.324 73.5989 180.735 73.5989Z" stroke="#D2EBD5"/>
<path d="M94.6811 190.392H82.8299C81.6025 190.392 80.6113 189.403 80.6113 188.176V176.301C80.6113 175.715 80.8492 175.146 81.2667 174.728L101.005 154.951C101.42 154.535 101.986 154.301 102.574 154.301H114.426C115.653 154.301 116.644 155.29 116.644 156.517V168.391C116.644 168.978 116.406 169.546 115.989 169.964L96.2509 189.742C95.8355 190.158 95.2693 190.392 94.6811 190.392Z" stroke="#D2EBD5"/>
<path d="M185.257 160.249H173.406C172.178 160.249 171.188 159.26 171.188 158.033V146.159C171.188 145.572 171.426 145.004 171.843 144.586L191.581 124.808C191.996 124.392 192.562 124.158 193.151 124.158H205.002C206.229 124.158 207.221 125.147 207.221 126.375V138.249C207.221 138.835 206.983 139.404 206.565 139.822L186.827 159.599C186.411 160.015 185.846 160.249 185.257 160.249Z" stroke="#D2EBD5"/>
<path d="M187.488 36.9165C187.113 37.2913 186.616 37.5188 186.091 37.5593H185.925H174.074C172.847 37.5593 171.856 36.5702 171.856 35.3435V23.4688C171.856 22.8822 172.093 22.3139 172.511 21.8958L192.242 2.11845C192.657 1.70218 193.223 1.46826 193.812 1.46826H205.663C206.89 1.46826 207.881 2.45734 207.881 3.68497V15.5661C207.881 16.1528 207.643 16.7201 207.226 17.1391L187.488 36.9165Z" stroke="#D2EBD5"/>
<path d="M130.663 183.44H118.812C117.585 183.44 116.594 182.451 116.594 181.225V169.35C116.594 168.763 116.831 168.195 117.249 167.777L154.777 130.175C155.192 129.758 155.758 129.524 156.346 129.524H168.198C169.425 129.524 170.415 130.513 170.415 131.74V143.615C170.415 144.202 170.178 144.77 169.76 145.188L132.233 182.79C131.817 183.206 131.251 183.44 130.663 183.44Z" stroke="#D2EBD5"/>
<path d="M11.2869 93.8791H-0.563883C-1.79126 93.8791 -2.78248 92.89 -2.78248 91.6633V79.7886C-2.78248 79.202 -2.5446 78.6338 -2.12703 78.2156L17.611 58.4383C18.0265 58.022 18.5924 57.7881 19.1809 57.7881H31.0317C32.2591 57.7881 33.2504 58.7772 33.2504 60.0048V71.8786C33.2504 72.4652 33.0124 73.0335 32.5949 73.4516L12.8568 93.229C12.4414 93.6452 11.8756 93.8791 11.2869 93.8791Z" stroke="#D2EBD5"/>
<path d="M119.848 135.943H107.998C106.77 135.943 105.779 134.954 105.779 133.727V121.853C105.779 121.266 106.017 120.698 106.435 120.28L126.173 100.502C126.588 100.086 127.154 99.8521 127.743 99.8521H139.594C140.821 99.8521 141.813 100.842 141.813 102.069V113.943C141.813 114.53 141.574 115.097 141.156 115.516L121.418 135.293C121.003 135.709 120.438 135.943 119.848 135.943Z" stroke="#D2EBD5"/>
<path d="M79.0396 116.501H67.1887C65.9614 116.501 64.9701 115.511 64.9701 114.284V102.41C64.9701 101.823 65.208 101.256 65.6256 100.837L95.0653 71.3387C95.4807 70.9224 96.0469 70.6885 96.6351 70.6885H108.486C109.713 70.6885 110.705 71.6785 110.705 72.9052V84.779C110.705 85.3666 110.467 85.9339 110.049 86.352L80.6095 115.851C80.1939 116.267 79.6281 116.501 79.0396 116.501Z" stroke="#D2EBD5"/>
<path d="M73.6847 152.038H61.8338C60.6064 152.038 59.6152 151.048 59.6152 149.821V137.946C59.6152 137.36 59.8531 136.792 60.2707 136.373L89.7103 106.875C90.1258 106.459 90.6916 106.225 91.2801 106.225H103.131C104.358 106.225 105.349 107.214 105.349 108.442V120.316C105.349 120.902 105.112 121.47 104.694 121.889L75.2545 151.387C74.8391 151.804 74.2732 152.038 73.6847 152.038Z" stroke="#D2EBD5"/>
<path d="M25.1761 170.473H13.3252C12.0978 170.473 11.1066 169.483 11.1066 168.257V156.383C11.1066 155.795 11.3445 155.228 11.762 154.81L51.2381 115.255C51.6537 114.838 52.2195 114.605 52.808 114.605H64.6588C65.8862 114.605 66.8775 115.594 66.8775 116.821V128.695C66.8775 129.282 66.6396 129.85 66.222 130.268L26.746 169.823C26.3304 170.239 25.7646 170.473 25.1761 170.473Z" stroke="#D2EBD5"/>
<path d="M124.869 100.078H113.019C111.791 100.078 110.801 99.0888 110.801 97.8621V85.9874C110.801 85.4007 111.039 84.8325 111.456 84.4144L150.932 44.8597C151.347 44.4434 151.914 44.2095 152.502 44.2095H164.353C165.58 44.2095 166.571 45.1995 166.571 46.4262V58.3C166.571 58.8875 166.334 59.4549 165.915 59.873L126.439 99.4277C126.024 99.844 125.459 100.078 124.869 100.078Z" stroke="#D2EBD5"/>
</g>
</svg>
