<svg width="175" height="190" viewBox="0 0 175 190" fill="none" xmlns="http://www.w3.org/2000/svg">
<g opacity="0.4">
<path d="M-94.2941 125.277C-94.7114 125.695 -94.9494 126.262 -94.9494 126.85V138.723C-94.9494 139.95 -93.9577 140.94 -92.7307 140.94H-80.8864C-80.2979 140.94 -79.732 140.706 -79.3165 140.29L3.28465 57.5241C3.70221 57.1057 3.9401 56.5379 3.9401 55.9511V44.0767C3.9401 42.8498 2.94888 41.8604 1.72151 41.8604H-10.1294C-10.7179 41.8604 -11.2837 42.0941 -11.6992 42.5104L-94.2941 125.277ZM-94.2941 125.277L-94.6176 124.951" stroke="#D2EBD5"/>
<path d="M79.334 127.899H67.4832C66.2558 127.899 65.2645 126.909 65.2645 125.682V113.807C65.2645 113.22 65.5024 112.653 65.92 112.234L104.559 73.5183C104.974 73.102 105.54 72.8682 106.129 72.8682H117.98C119.208 72.8682 120.199 73.8577 120.199 75.0845V86.959C120.199 87.5458 119.96 88.1135 119.543 88.5319L80.9039 127.248C80.4883 127.665 79.9225 127.899 79.334 127.899Z" stroke="#D2EBD5"/>
<path d="M18.1121 71.2489H6.26128C5.0339 71.2489 4.04268 70.2594 4.04268 69.0326V57.1581C4.04268 56.5714 4.28057 56.0036 4.69814 55.5852L34.1379 26.0869C34.5533 25.6705 35.1191 25.4368 35.7077 25.4368H47.5585C48.7859 25.4368 49.7771 26.4262 49.7771 27.6531V39.5276C49.7771 40.1143 49.5392 40.6821 49.1217 41.1005L19.682 70.5989C19.2665 71.0152 18.7006 71.2489 18.1121 71.2489Z" stroke="#D2EBD5"/>
<path d="M142.231 66.2177H130.38C129.153 66.2177 128.161 65.2282 128.161 64.0014V52.1269C128.161 51.5401 128.399 50.9724 128.817 50.554L158.256 21.0556C158.672 20.6393 159.238 20.4055 159.826 20.4055H171.677C172.904 20.4055 173.896 21.3951 173.896 22.6219V34.4963C173.896 35.0831 173.658 35.6509 173.24 36.0693L143.801 65.5676C143.385 65.9839 142.819 66.2177 142.231 66.2177Z" stroke="#D2EBD5"/>
<path d="M105.091 72.591H93.2399C92.0129 72.591 91.0213 71.6014 91.0213 70.3746V58.5002C91.0213 57.9134 91.2593 57.3456 91.6768 56.9272L111.415 37.1499C111.83 36.7335 112.396 36.4998 112.984 36.4998H124.835C126.062 36.4998 127.054 37.4892 127.054 38.7161V50.5905C127.054 51.1773 126.816 51.7451 126.399 52.1635L106.661 71.9409C106.245 72.3572 105.679 72.591 105.091 72.591Z" stroke="#D2EBD5"/>
<path d="M19.0367 189.384H7.18579C5.95841 189.384 4.96719 188.395 4.96719 187.168V175.293C4.96719 174.707 5.20507 174.138 5.62264 173.72L25.3607 153.943C25.7762 153.527 26.342 153.293 26.9305 153.293H38.7814C40.0087 153.293 41 154.282 41 155.509V167.383C41 167.97 40.7621 168.538 40.3446 168.956L20.6065 188.734C20.191 189.15 19.6252 189.384 19.0367 189.384Z" stroke="#D2EBD5"/>
<path d="M109.613 159.241H97.7619C96.5349 159.241 95.5432 158.252 95.5432 157.025V145.151C95.5432 144.564 95.7813 143.996 96.1985 143.578L115.937 123.8C116.352 123.384 116.918 123.15 117.506 123.15H129.358C130.585 123.15 131.576 124.139 131.576 125.367V137.241C131.576 137.827 131.338 138.396 130.921 138.814L111.183 158.591C110.767 159.007 110.201 159.241 109.613 159.241Z" stroke="#D2EBD5"/>
<path d="M111.844 35.9083C111.469 36.2837 110.972 36.5107 110.447 36.5516H110.28H98.4301C97.2022 36.5516 96.2114 35.5621 96.2114 34.3353V22.4608C96.2114 21.8741 96.4494 21.3063 96.8667 20.8878L116.598 1.1105C117.014 0.694195 117.579 0.460449 118.168 0.460449H130.018C131.246 0.460449 132.237 1.44994 132.237 2.67676V14.558C132.237 15.1447 131.999 15.7126 131.582 16.1309L111.844 35.9083Z" stroke="#D2EBD5"/>
<path d="M55.0187 182.433H43.1678C41.9404 182.433 40.9492 181.444 40.9492 180.217V168.342C40.9492 167.755 41.1871 167.187 41.6047 166.769L79.1324 129.167C79.5479 128.751 80.1137 128.517 80.7022 128.517H92.5533C93.7803 128.517 94.7721 129.506 94.7721 130.732V142.607C94.7721 143.194 94.534 143.762 94.1158 144.18L56.5885 181.782C56.1731 182.199 55.6072 182.433 55.0187 182.433Z" stroke="#D2EBD5"/>
<path d="M44.2047 134.936H32.3538C31.1265 134.936 30.1352 133.946 30.1352 132.72V120.845C30.1352 120.258 30.3731 119.69 30.7907 119.272L50.5287 99.4947C50.9442 99.0784 51.51 98.8445 52.0985 98.8445H63.9494C65.1768 98.8445 66.168 99.8345 66.168 101.061V112.935C66.168 113.523 65.9301 114.09 65.5126 114.508L45.7745 134.285C45.359 134.702 44.7932 134.936 44.2047 134.936Z" stroke="#D2EBD5"/>
<path d="M3.39549 115.493H-8.45537C-9.68273 115.493 -10.674 114.503 -10.674 113.277V101.402C-10.674 100.815 -10.4361 100.248 -10.0185 99.829L19.4211 70.331C19.8367 69.9146 20.4025 69.6809 20.991 69.6809H32.8419C34.0693 69.6809 35.0605 70.6704 35.0605 71.8973V83.7717C35.0605 84.3584 34.8226 84.9263 34.4051 85.3447L4.96533 114.843C4.54985 115.259 3.98401 115.493 3.39549 115.493Z" stroke="#D2EBD5"/>
<path d="M-1.95944 151.03H-13.8103C-15.0377 151.03 -16.029 150.04 -16.029 148.813V136.939C-16.029 136.352 -15.791 135.785 -15.3734 135.367L14.0663 105.868C14.4817 105.451 15.0475 105.218 15.6361 105.218H27.4869C28.7143 105.218 29.7055 106.208 29.7055 107.434V119.309C29.7055 119.896 29.4676 120.463 29.0501 120.882L-0.389599 150.38C-0.805082 150.796 -1.37092 151.03 -1.95944 151.03Z" stroke="#D2EBD5"/>
<path d="M49.2257 99.0701H37.3748C36.1475 99.0701 35.1562 98.081 35.1562 96.8543V84.9796C35.1562 84.3929 35.3941 83.825 35.8117 83.4067L75.2879 43.8519C75.7033 43.4356 76.2691 43.2019 76.8576 43.2019H88.7085C89.9359 43.2019 90.9271 44.1914 90.9271 45.4182V57.2927C90.9271 57.8794 90.6892 58.4472 90.2717 58.8656L50.7956 98.42C50.3801 98.8362 49.8142 99.0701 49.2257 99.0701Z" stroke="#D2EBD5"/>
</g>
</svg>
